<?xml version="1.0" encoding="UTF-8" standalone="no"?>
<svg
   xmlns:dc="http://purl.org/dc/elements/1.1/"
   xmlns:cc="http://creativecommons.org/ns#"
   xmlns:rdf="http://www.w3.org/1999/02/22-rdf-syntax-ns#"
   xmlns:svg="http://www.w3.org/2000/svg"
   xmlns="http://www.w3.org/2000/svg"
   xmlns:sodipodi="http://sodipodi.sourceforge.net/DTD/sodipodi-0.dtd"
   xmlns:inkscape="http://www.inkscape.org/namespaces/inkscape"
   viewBox="0 0 703.18 203.59"
   version="1.1"
   id="svg56"
   sodipodi:docname="darcy_logo_with_ibex.svg"
   inkscape:version="0.92.4 (5da689c313, 2019-01-14)">
  <metadata
     id="metadata60">
    <rdf:RDF>
      <cc:Work
         rdf:about="">
        <dc:format>image/svg+xml</dc:format>
        <dc:type
           rdf:resource="http://purl.org/dc/dcmitype/StillImage" />
        <dc:title>darcy-logo</dc:title>
      </cc:Work>
    </rdf:RDF>
  </metadata>
  <sodipodi:namedview
     pagecolor="#ffffff"
     bordercolor="#666666"
     borderopacity="1"
     objecttolerance="10"
     gridtolerance="10"
     guidetolerance="10"
     inkscape:pageopacity="0"
     inkscape:pageshadow="2"
     inkscape:window-width="2114"
     inkscape:window-height="1504"
     id="namedview58"
     showgrid="false"
     inkscape:zoom="1.9749676"
     inkscape:cx="326.2419"
     inkscape:cy="132.51586"
     inkscape:window-x="706"
     inkscape:window-y="150"
     inkscape:window-maximized="0"
     inkscape:current-layer="svg56" />
  <defs
     id="defs38">
    <style
       id="style36">.cls-1{fill:#FFFFFF;}</style>
  </defs>
  <title
     id="title40">darcy-logo</title>
  <path
     class="cls-1"
     d="m 394.61,53 a 53.28,53.28 0 0 1 20,20.08 56.28,56.28 0 0 1 7.29,28.37 v 47 a 7.34,7.34 0 0 1 -2.2,5.39 7.57,7.57 0 0 1 -5.59,2.2 7.78,7.78 0 0 1 -5.6,-2.1 7.23,7.23 0 0 1 -2.2,-5.49 v -12 a 49.42,49.42 0 0 1 -17.78,15.08 51.53,51.53 0 0 1 -23.77,5.5 52.64,52.64 0 0 1 -46.85,-27.28 56.9,56.9 0 0 1 -7.1,-28.27 56.18,56.18 0 0 1 7.3,-28.37 53.14,53.14 0 0 1 20,-20.08 58.46,58.46 0 0 1 56.54,0 z m -7.7,84.62 a 38.9,38.9 0 0 0 14.49,-14.89 42.9,42.9 0 0 0 5.29,-21.28 42.89,42.89 0 0 0 -5.29,-21.27 40.27,40.27 0 0 0 -70.33,0 42.89,42.89 0 0 0 -5.29,21.27 42.9,42.9 0 0 0 5.29,21.28 38.66,38.66 0 0 0 14.59,14.89 40.46,40.46 0 0 0 20.68,5.39 39.91,39.91 0 0 0 20.57,-5.35 z"
     id="path42"
     inkscape:connector-curvature="0"
     style="fill:#ffffff" />
  <path
     class="cls-1"
     d="m 500.69,47.75 q 4.9,2.2 4.9,6.19 a 6.85,6.85 0 0 1 -2.7,5.6 9.23,9.23 0 0 1 -4.69,1 q -1.8,0 -6.2,-0.4 a 42.84,42.84 0 0 0 -4.79,-0.2 q -15,0 -24.48,8 a 25.9,25.9 0 0 0 -9.49,20.78 v 59.74 a 7.92,7.92 0 0 1 -13.18,5.54 7.53,7.53 0 0 1 -2,-5.59 V 54.34 a 7.93,7.93 0 0 1 13.19,-5.59 7.61,7.61 0 0 1 2,5.59 v 8.79 a 39.58,39.58 0 0 1 14.79,-13 41.87,41.87 0 0 1 19.38,-4.6 q 8.37,0.02 13.27,2.22 z"
     id="path44"
     inkscape:connector-curvature="0"
     style="fill:#ffffff" />
  <path
     class="cls-1"
     d="m 528.56,149.74 a 52.44,52.44 0 0 1 -19.48,-20 56.89,56.89 0 0 1 -7.08,-28.25 59.78,59.78 0 0 1 6.79,-28.67 50.58,50.58 0 0 1 18.78,-19.88 51.5,51.5 0 0 1 27,-7.19 q 25,0 40.55,19.18 a 6.11,6.11 0 0 1 1.6,4.2 q 0,3.2 -3.39,5.59 a 6.75,6.75 0 0 1 -3.8,1.2 q -3,0 -5.79,-3 A 41.08,41.08 0 0 0 570.52,63 38,38 0 0 0 554.52,59.71 36.52,36.52 0 0 0 535,65 a 35.19,35.19 0 0 0 -13.29,14.89 48.39,48.39 0 0 0 -4.71,21.6 45,45 0 0 0 5,21.28 37.19,37.19 0 0 0 14,14.89 39.24,39.24 0 0 0 20.57,5.39 q 16,0 25.78,-8.59 a 8.3,8.3 0 0 1 5.39,-2.2 6.94,6.94 0 0 1 4.4,1.6 7,7 0 0 1 2.79,5.39 5.69,5.69 0 0 1 -2,4.4 Q 578.51,157 556.53,157 a 54,54 0 0 1 -27.97,-7.26 z"
     id="path46"
     inkscape:connector-curvature="0"
     style="fill:#ffffff" />
  <path
     class="cls-1"
     d="m 703.18,53.14 a 8.85,8.85 0 0 1 -0.8,3.6 L 637.65,199 c -1.2,3.06 -3.13,4.6 -5.8,4.6 a 7.93,7.93 0 0 1 -3.59,-0.8 q -4.6,-1.8 -4.6,-6 a 8.84,8.84 0 0 1 0.8,-3.59 l 19.78,-43.76 v -0.2 l -44.55,-92.3 a 7.81,7.81 0 0 1 -0.8,-3.6 q 0,-4.19 4.39,-6 a 8,8 0 0 1 3.6,-0.8 q 4.2,0 6,4.2 l 39,82.11 L 689,51 c 1.33,-2.93 3.32,-4.4 6,-4.4 a 8.85,8.85 0 0 1 3.6,0.8 q 4.58,1.75 4.58,5.74 z"
     id="path48"
     inkscape:connector-curvature="0"
     style="fill:#ffffff" />
  <path
     class="cls-1"
     d="m 294.41,54.34 a 5.85,5.85 0 0 0 -0.2,-1.8 V 7.79 A 7.79,7.79 0 0 0 292.12,2.2 7.24,7.24 0 0 0 286.62,0 7.53,7.53 0 0 0 278.83,7.79 V 62.66 A 53.88,53.88 0 0 0 266.61,53 55.72,55.72 0 0 0 238.34,45.71 h -1.07 A 52.81,52.81 0 0 0 209.8,53 a 56,56 0 0 0 -19.71,20.08 56.18,56.18 0 0 0 -7.3,28.37 56.9,56.9 0 0 0 7.1,28.27 52.64,52.64 0 0 0 46.85,27.28 h 0.75 1.38 a 55.63,55.63 0 0 0 28.27,-7.3 53.23,53.23 0 0 0 11.15,-8.49 v 7.2 a 7.23,7.23 0 0 0 2.2,5.49 7.78,7.78 0 0 0 5.6,2.1 7.57,7.57 0 0 0 5.59,-2.2 7.34,7.34 0 0 0 2.2,-5.39 v -39 a 62.72,62.72 0 0 0 0.53,-8.19 z m -76.22,83.22 a 39.46,39.46 0 0 1 -14.58,-15 42.91,42.91 0 0 1 -5.3,-21.28 42.9,42.9 0 0 1 5.3,-21.28 38.7,38.7 0 0 1 14.58,-14.89 40.39,40.39 0 0 1 20.41,-5.38 39.21,39.21 0 0 1 20.31,5.48 39.66,39.66 0 0 1 14.49,15 42.89,42.89 0 0 1 5.29,21.27 42.9,42.9 0 0 1 -5.29,21.28 38.9,38.9 0 0 1 -14.49,14.89 40.89,40.89 0 0 1 -40.72,-0.1 z"
     id="path50"
     inkscape:connector-curvature="0"
     style="fill:#ffffff" />
  <path
     style="fill:#ffffff"
     d="M 10.869141 8.140625 A 10.9 10.9 0 0 0 0 19 L 0 111.40039 A 10.9 10.9 0 0 0 10.869141 122.26953 L 116.30078 122.26953 C 122.30078 122.26953 130.62937 125.73094 134.85938 129.96094 L 158.60938 153.71094 C 162.83937 157.94094 166.30078 156.5093 166.30078 150.5293 L 166.30078 19 A 10.9 10.9 0 0 0 155.42969 8.140625 L 10.869141 8.140625 z M 88.455078 18.734375 L 90.15625 18.734375 C 91.35625 18.834375 91.256641 20.034766 90.056641 20.134766 C 83.256641 21.034766 72.25625 27.833984 72.65625 46.833984 C 75.15625 45.833984 71.455859 40.734375 76.755859 41.734375 C 77.555859 41.934375 79.755469 38.734766 79.355469 38.134766 C 78.755469 37.134766 77.555859 34.235156 81.755859 34.535156 C 82.655859 34.535156 93.756247 18.734766 111.65625 23.134766 C 114.05625 23.734766 113.95625 24.935547 111.15625 24.935547 C 98.456247 24.835547 88.655859 40.735547 84.755859 47.435547 C 83.855859 48.935547 83.855859 50.534766 82.755859 51.134766 C 82.455859 54.634766 81.755078 56.235156 81.455078 58.035156 C 81.055078 60.535156 82.755469 60.635547 82.855469 59.935547 C 82.955469 58.735547 83.05625 54.435156 86.15625 55.035156 C 88.65625 55.535156 88.956641 61.435547 89.556641 64.935547 C 95.956641 71.035547 98.855075 80.034375 100.45508 83.234375 C 106.15508 85.434375 111.95508 99.53398 113.95508 104.83398 C 114.25508 105.83398 114.55547 106.73555 114.85547 107.93555 C 114.85547 107.93555 79.083132 106.25683 75.208984 106.625 C 75.192862 106.6962 75.17121 106.76168 75.15625 106.83398 C 74.635766 106.72989 74.758839 106.66778 75.208984 106.625 C 76.486057 100.98498 81.34129 98.774459 80.15625 93.935547 C 75.65625 93.635547 73.255469 97.833984 70.355469 98.833984 C 68.355469 99.533984 66.255469 98.235547 64.855469 99.935547 C 62.355469 103.13555 58.356641 102.13438 60.556641 99.734375 C 59.156641 100.33438 58.555469 100.43555 56.855469 99.935547 C 55.455469 99.535547 53.655078 97.435547 53.455078 96.435547 C 53.055078 94.535547 53.155078 92.235156 54.455078 90.535156 C 56.055078 88.435156 62.45625 75.434766 62.65625 72.634766 C 62.75625 71.734766 61.155078 70.734375 60.455078 69.734375 C 59.155078 67.734375 59.055469 62.734375 62.355469 60.234375 C 58.955469 56.634375 62.55625 54.934375 63.15625 54.734375 C 64.35625 54.434375 64.455859 52.533984 63.255859 52.333984 C 59.555859 51.633984 60.955859 47.935156 63.255859 47.535156 C 64.055859 47.435156 64.056641 45.035156 63.056641 44.535156 C 61.356641 43.735156 62.255078 39.934375 64.955078 40.234375 C 65.855078 40.334375 65.855078 37.135547 64.955078 36.935547 C 63.455078 36.535547 64.256641 34.535547 66.056641 34.435547 C 67.356641 30.135547 71.655078 18.634375 88.455078 18.734375 z M 71.65625 73.634766 C 71.25625 73.834766 70.656641 76.434375 70.556641 77.734375 C 70.756641 77.934375 71.55625 75.935547 72.65625 76.435547 C 74.95625 77.535547 77.955078 73.734375 77.955078 73.734375 C 77.955078 73.734375 74.255859 74.834766 71.755859 73.634766 L 71.65625 73.634766 z "
     id="path52" />
</svg>
