<svg xmlns="http://www.w3.org/2000/svg" viewBox="0 0 703.18 203.59"><defs><style>.cls-1{fill:#FFFFFF;}</style></defs><title>darcy-logo</title><g id="Layer_2" data-name="Layer 2"><g id="Layer_1-2" data-name="Layer 1"><path class="cls-1" d="M394.61,53a53.28,53.28,0,0,1,20,20.08,56.28,56.28,0,0,1,7.29,28.37v47a7.34,7.34,0,0,1-2.2,5.39,7.57,7.57,0,0,1-5.59,2.2,7.78,7.78,0,0,1-5.6-2.1,7.23,7.23,0,0,1-2.2-5.49v-12a49.42,49.42,0,0,1-17.78,15.08,51.53,51.53,0,0,1-23.77,5.5,52.64,52.64,0,0,1-46.85-27.28,56.9,56.9,0,0,1-7.1-28.27,56.18,56.18,0,0,1,7.3-28.37,53.14,53.14,0,0,1,20-20.08,58.46,58.46,0,0,1,56.54,0Zm-7.7,84.62a38.9,38.9,0,0,0,14.49-14.89,42.9,42.9,0,0,0,5.29-21.28,42.89,42.89,0,0,0-5.29-21.27,40.27,40.27,0,0,0-70.33,0,42.89,42.89,0,0,0-5.29,21.27,42.9,42.9,0,0,0,5.29,21.28,38.66,38.66,0,0,0,14.59,14.89,40.46,40.46,0,0,0,20.68,5.39A39.91,39.91,0,0,0,386.91,137.66Z"/><path class="cls-1" d="M500.69,47.75q4.9,2.2,4.9,6.19a6.85,6.85,0,0,1-2.7,5.6,9.23,9.23,0,0,1-4.69,1q-1.8,0-6.2-.4a42.84,42.84,0,0,0-4.79-.2q-15,0-24.48,8a25.9,25.9,0,0,0-9.49,20.78v59.74A7.92,7.92,0,0,1,440.06,154a7.53,7.53,0,0,1-2-5.59V54.34a7.93,7.93,0,0,1,13.19-5.59,7.61,7.61,0,0,1,2,5.59v8.79a39.58,39.58,0,0,1,14.79-13,41.87,41.87,0,0,1,19.38-4.6Q495.79,45.55,500.69,47.75Z"/><path class="cls-1" d="M528.56,149.74a52.44,52.44,0,0,1-19.48-20A56.89,56.89,0,0,1,502,101.49a59.78,59.78,0,0,1,6.79-28.67,50.58,50.58,0,0,1,18.78-19.88,51.5,51.5,0,0,1,27-7.19q25,0,40.55,19.18a6.11,6.11,0,0,1,1.6,4.2q0,3.2-3.39,5.59a6.75,6.75,0,0,1-3.8,1.2q-3,0-5.79-3A41.08,41.08,0,0,0,570.52,63a38,38,0,0,0-16-3.29A36.52,36.52,0,0,0,535,65a35.19,35.19,0,0,0-13.29,14.89A48.39,48.39,0,0,0,517,101.49a45,45,0,0,0,5,21.28,37.19,37.19,0,0,0,14,14.89,39.24,39.24,0,0,0,20.57,5.39q16,0,25.78-8.59a8.3,8.3,0,0,1,5.39-2.2,6.94,6.94,0,0,1,4.4,1.6,7,7,0,0,1,2.79,5.39,5.69,5.69,0,0,1-2,4.4Q578.51,157,556.53,157A54,54,0,0,1,528.56,149.74Z"/><path class="cls-1" d="M703.18,53.14a8.85,8.85,0,0,1-.8,3.6L637.65,199c-1.2,3.06-3.13,4.6-5.8,4.6a7.93,7.93,0,0,1-3.59-.8q-4.6-1.8-4.6-6a8.84,8.84,0,0,1,.8-3.59l19.78-43.76v-.2l-44.55-92.3a7.81,7.81,0,0,1-.8-3.6q0-4.19,4.39-6a8,8,0,0,1,3.6-.8q4.2,0,6,4.2l39,82.11L689,51c1.33-2.93,3.32-4.4,6-4.4a8.85,8.85,0,0,1,3.6.8Q703.18,49.15,703.18,53.14Z"/><path class="cls-1" d="M294.41,54.34a5.85,5.85,0,0,0-.2-1.8V7.79a7.79,7.79,0,0,0-2.09-5.59,7.24,7.24,0,0,0-5.5-2.2,7.53,7.53,0,0,0-7.79,7.79V62.66A53.88,53.88,0,0,0,266.61,53a55.72,55.72,0,0,0-28.27-7.29h-1.07A52.81,52.81,0,0,0,209.8,53a56,56,0,0,0-19.71,20.08,56.18,56.18,0,0,0-7.3,28.37,56.9,56.9,0,0,0,7.1,28.27A52.64,52.64,0,0,0,236.74,157l.75,0,1.38,0a55.63,55.63,0,0,0,28.27-7.3,53.23,53.23,0,0,0,11.15-8.49v7.2a7.23,7.23,0,0,0,2.2,5.49,7.78,7.78,0,0,0,5.6,2.1,7.57,7.57,0,0,0,5.59-2.2,7.34,7.34,0,0,0,2.2-5.39v-39a62.72,62.72,0,0,0,.53-8.19Zm-76.22,83.22a39.46,39.46,0,0,1-14.58-15,42.91,42.91,0,0,1-5.3-21.28A42.9,42.9,0,0,1,203.61,80a38.7,38.7,0,0,1,14.58-14.89,40.39,40.39,0,0,1,20.41-5.38,39.21,39.21,0,0,1,20.31,5.48,39.66,39.66,0,0,1,14.49,15,42.89,42.89,0,0,1,5.29,21.27,42.9,42.9,0,0,1-5.29,21.28,38.9,38.9,0,0,1-14.49,14.89,40.89,40.89,0,0,1-40.72-.1Z"/><path class="cls-1" d="M10.87,8.14A10.9,10.9,0,0,0,0,19V111.4a10.9,10.9,0,0,0,10.87,10.87H116.3c6,0,14.33,3.46,18.56,7.69l23.75,23.75c4.23,4.23,7.69,2.8,7.69-3.18V19A10.9,10.9,0,0,0,155.43,8.14Z"/></g></g></svg>